<svg width="16" height="16" viewBox="0 0 16 16" fill="none" xmlns="http://www.w3.org/2000/svg">
<g clip-path="url(#clip0_288_24)">
<path d="M8 0L16 3.42857V4.57143H14.9333C14.9333 4.72619 14.8764 4.86012 14.7625 4.97321C14.6486 5.08631 14.5139 5.14286 14.3583 5.14286H1.64167C1.48611 5.14286 1.35139 5.08631 1.2375 4.97321C1.12361 4.86012 1.06667 4.72619 1.06667 4.57143H0V3.42857L8 0ZM2.13333 5.71429H4.26667V12.5714H5.33333V5.71429H7.46667V12.5714H8.53333V5.71429H10.6667V12.5714H11.7333V5.71429H13.8667V12.5714H14.3583C14.5139 12.5714 14.6486 12.628 14.7625 12.7411C14.8764 12.8542 14.9333 12.9881 14.9333 13.1429V13.7143H1.06667V13.1429C1.06667 12.9881 1.12361 12.8542 1.2375 12.7411C1.35139 12.628 1.48611 12.5714 1.64167 12.5714H2.13333V5.71429ZM15.425 14.2857C15.5806 14.2857 15.7153 14.3423 15.8292 14.4554C15.9431 14.5685 16 14.7024 16 14.8571V16H0V14.8571C0 14.7024 0.0569444 14.5685 0.170833 14.4554C0.284722 14.3423 0.419444 14.2857 0.575 14.2857H15.425Z" fill="#2B60FF"/>
</g>
<defs>
<clipPath id="clip0_288_24">
<rect width="16" height="16" fill="white"/>
</clipPath>
</defs>
</svg>
