<svg width="16" height="14" viewBox="0 0 16 14" fill="none" xmlns="http://www.w3.org/2000/svg">
<g clip-path="url(#clip0_288_51)">
<path d="M14.8571 12.4091V4.77273C14.6667 5.01136 14.4613 5.23011 14.2411 5.42898C12.6458 6.79451 11.378 7.91477 10.4375 8.78977C10.1339 9.07481 9.88691 9.29688 9.69643 9.45597C9.50595 9.61506 9.24851 9.7758 8.92411 9.93821C8.5997 10.1006 8.29464 10.1818 8.00893 10.1818H7.99107C7.70536 10.1818 7.4003 10.1006 7.07589 9.93821C6.75149 9.7758 6.49405 9.61506 6.30357 9.45597C6.1131 9.29688 5.86607 9.07481 5.5625 8.78977C4.62202 7.91477 3.35417 6.79451 1.75893 5.42898C1.53869 5.23011 1.33333 5.01136 1.14286 4.77273V12.4091C1.14286 12.4953 1.17113 12.5698 1.22768 12.6328C1.28423 12.6958 1.35119 12.7273 1.42857 12.7273H14.5714C14.6488 12.7273 14.7158 12.6958 14.7723 12.6328C14.8289 12.5698 14.8571 12.4953 14.8571 12.4091ZM14.8571 1.95881V1.7152L14.8527 1.58594L14.8259 1.46165L14.7768 1.37216L14.6964 1.29759L14.5714 1.27273H1.42857C1.35119 1.27273 1.28423 1.30421 1.22768 1.36719C1.17113 1.43016 1.14286 1.50473 1.14286 1.59091C1.14286 2.70455 1.58036 3.64583 2.45536 4.41477C3.60417 5.42235 4.79762 6.47301 6.03571 7.56676C6.07143 7.59991 6.1756 7.69768 6.34821 7.86009C6.52083 8.02249 6.65774 8.14678 6.75893 8.23295C6.86012 8.31913 6.99256 8.42353 7.15625 8.54616C7.31994 8.6688 7.47024 8.75994 7.60714 8.8196C7.74405 8.87926 7.87202 8.90909 7.99107 8.90909H8.00893C8.12798 8.90909 8.25595 8.87926 8.39286 8.8196C8.52976 8.75994 8.68006 8.6688 8.84375 8.54616C9.00744 8.42353 9.13988 8.31913 9.24107 8.23295C9.34226 8.14678 9.47917 8.02249 9.65179 7.86009C9.82441 7.69768 9.92857 7.59991 9.96429 7.56676C11.2024 6.47301 12.3958 5.42235 13.5446 4.41477C13.8661 4.12973 14.1652 3.74692 14.442 3.26634C14.7188 2.78575 14.8571 2.34991 14.8571 1.95881ZM16 1.59091V12.4091C16 12.8466 15.8601 13.2211 15.5804 13.5327C15.3006 13.8442 14.9643 14 14.5714 14H1.42857C1.03571 14 0.699405 13.8442 0.419643 13.5327C0.139881 13.2211 0 12.8466 0 12.4091V1.59091C0 1.15341 0.139881 0.778883 0.419643 0.46733C0.699405 0.155777 1.03571 0 1.42857 0H14.5714C14.9643 0 15.3006 0.155777 15.5804 0.46733C15.8601 0.778883 16 1.15341 16 1.59091Z" fill="#2B60FF"/>
</g>
<defs>
<clipPath id="clip0_288_51">
<rect width="16" height="14" fill="white"/>
</clipPath>
</defs>
</svg>
