<svg width="16" height="18" viewBox="0 0 16 18" fill="none" xmlns="http://www.w3.org/2000/svg">
<g clip-path="url(#clip0_288_191)">
<path d="M15.2917 3.81696C15.4861 4.00446 15.6528 4.25893 15.7917 4.58036C15.9306 4.90179 16 5.19643 16 5.46429V17.0357C16 17.3036 15.9028 17.5312 15.7083 17.7188C15.5139 17.9062 15.2778 18 15 18H1C0.722222 18 0.486111 17.9062 0.291667 17.7188C0.0972222 17.5312 0 17.3036 0 17.0357V0.964286C0 0.696429 0.0972222 0.46875 0.291667 0.28125C0.486111 0.09375 0.722222 0 1 0H10.3333C10.6111 0 10.9167 0.0669643 11.25 0.200893C11.5833 0.334821 11.8472 0.495536 12.0417 0.683036L15.2917 3.81696ZM10.6667 1.36607V5.14286H14.5833C14.5139 4.94866 14.4375 4.81138 14.3542 4.73103L11.0938 1.58705C11.0104 1.5067 10.8681 1.43304 10.6667 1.36607ZM14.6667 16.7143V6.42857H10.3333C10.0556 6.42857 9.81944 6.33482 9.625 6.14732C9.43056 5.95982 9.33333 5.73214 9.33333 5.46429V1.28571H1.33333V16.7143H14.6667ZM4 8.03571C4 7.94196 4.03125 7.86496 4.09375 7.80469C4.15625 7.74442 4.23611 7.71429 4.33333 7.71429H11.6667C11.7639 7.71429 11.8438 7.74442 11.9062 7.80469C11.9688 7.86496 12 7.94196 12 8.03571V8.67857C12 8.77232 11.9688 8.84933 11.9062 8.9096C11.8438 8.96987 11.7639 9 11.6667 9H4.33333C4.23611 9 4.15625 8.96987 4.09375 8.9096C4.03125 8.84933 4 8.77232 4 8.67857V8.03571ZM11.6667 10.2857C11.7639 10.2857 11.8438 10.3158 11.9062 10.3761C11.9688 10.4364 12 10.5134 12 10.6071V11.25C12 11.3438 11.9688 11.4208 11.9062 11.481C11.8438 11.5413 11.7639 11.5714 11.6667 11.5714H4.33333C4.23611 11.5714 4.15625 11.5413 4.09375 11.481C4.03125 11.4208 4 11.3438 4 11.25V10.6071C4 10.5134 4.03125 10.4364 4.09375 10.3761C4.15625 10.3158 4.23611 10.2857 4.33333 10.2857H11.6667ZM11.6667 12.8571C11.7639 12.8571 11.8438 12.8873 11.9062 12.9475C11.9688 13.0078 12 13.0848 12 13.1786V13.8214C12 13.9152 11.9688 13.9922 11.9062 14.0525C11.8438 14.1127 11.7639 14.1429 11.6667 14.1429H4.33333C4.23611 14.1429 4.15625 14.1127 4.09375 14.0525C4.03125 13.9922 4 13.9152 4 13.8214V13.1786C4 13.0848 4.03125 13.0078 4.09375 12.9475C4.15625 12.8873 4.23611 12.8571 4.33333 12.8571H11.6667Z" fill="#2B60FF"/>
</g>
<defs>
<clipPath id="clip0_288_191">
<rect width="16" height="18" fill="white"/>
</clipPath>
</defs>
</svg>
