<svg width="16" height="18" viewBox="0 0 16 18" fill="none" xmlns="http://www.w3.org/2000/svg">
<g clip-path="url(#clip0_288_3)">
<path d="M15.1429 3.85714C15.381 3.85714 15.5833 3.95089 15.75 4.13839C15.9167 4.32589 16 4.55357 16 4.82143V17.0357C16 17.3036 15.9167 17.5312 15.75 17.7188C15.5833 17.9062 15.381 18 15.1429 18H6.57143C6.33333 18 6.13095 17.9062 5.96429 17.7188C5.79762 17.5312 5.71429 17.3036 5.71429 17.0357V14.1429H0.857143C0.619048 14.1429 0.416667 14.0491 0.25 13.8616C0.0833333 13.6741 0 13.4464 0 13.1786V6.42857C0 6.16071 0.0595238 5.86607 0.178571 5.54464C0.297619 5.22321 0.440476 4.96875 0.607143 4.78125L4.25 0.683036C4.41667 0.495536 4.64286 0.334821 4.92857 0.200893C5.21429 0.0669643 5.47619 0 5.71429 0H9.42857C9.66667 0 9.86905 0.09375 10.0357 0.28125C10.2024 0.46875 10.2857 0.696429 10.2857 0.964286V4.25893C10.6905 3.99107 11.0714 3.85714 11.4286 3.85714H15.1429ZM10.2857 5.99665L7.61607 9H10.2857V5.99665ZM4.57143 2.13951L1.90179 5.14286H4.57143V2.13951ZM6.32143 8.63839L9.14286 5.46429V1.28571H5.71429V5.46429C5.71429 5.73214 5.63095 5.95982 5.46429 6.14732C5.29762 6.33482 5.09524 6.42857 4.85714 6.42857H1.14286V12.8571H5.71429V10.2857C5.71429 10.0179 5.77381 9.72321 5.89286 9.40179C6.01191 9.08036 6.15476 8.82589 6.32143 8.63839ZM14.8571 16.7143V5.14286H11.4286V9.32143C11.4286 9.58929 11.3452 9.81696 11.1786 10.0045C11.0119 10.192 10.8095 10.2857 10.5714 10.2857H6.85714V16.7143H14.8571Z" fill="#2B60FF"/>
</g>
<defs>
<clipPath id="clip0_288_3">
<rect width="16" height="18" fill="white"/>
</clipPath>
</defs>
</svg>
