<svg width="16" height="18" viewBox="0 0 16 18" fill="none" xmlns="http://www.w3.org/2000/svg">
<g clip-path="url(#clip0_288_140)">
<path d="M15.2917 3.81696C15.4861 4.00446 15.6528 4.25893 15.7917 4.58036C15.9306 4.90179 16 5.19643 16 5.46429V17.0357C16 17.3036 15.9028 17.5312 15.7083 17.7188C15.5139 17.9062 15.2778 18 15 18H1C0.722222 18 0.486111 17.9062 0.291667 17.7188C0.0972222 17.5312 0 17.3036 0 17.0357V0.964286C0 0.696429 0.0972222 0.46875 0.291667 0.28125C0.486111 0.09375 0.722222 0 1 0H10.3333C10.6111 0 10.9167 0.0669643 11.25 0.200893C11.5833 0.334821 11.8472 0.495536 12.0417 0.683036L15.2917 3.81696ZM10.6667 1.36607V5.14286H14.5833C14.5139 4.94866 14.4375 4.81138 14.3542 4.73103L11.0938 1.58705C11.0104 1.5067 10.8681 1.43304 10.6667 1.36607ZM14.6667 16.7143V6.42857H10.3333C10.0556 6.42857 9.81944 6.33482 9.625 6.14732C9.43056 5.95982 9.33333 5.73214 9.33333 5.46429V1.28571H1.33333V16.7143H14.6667ZM13.3333 12.2143V15.4286H2.66667V13.5L4.66667 11.5714L6 12.8571L10 9L13.3333 12.2143ZM4.66667 10.2857C4.11111 10.2857 3.63889 10.0982 3.25 9.72321C2.86111 9.34821 2.66667 8.89286 2.66667 8.35714C2.66667 7.82143 2.86111 7.36607 3.25 6.99107C3.63889 6.61607 4.11111 6.42857 4.66667 6.42857C5.22222 6.42857 5.69444 6.61607 6.08333 6.99107C6.47222 7.36607 6.66667 7.82143 6.66667 8.35714C6.66667 8.89286 6.47222 9.34821 6.08333 9.72321C5.69444 10.0982 5.22222 10.2857 4.66667 10.2857Z" fill="#2B60FF"/>
</g>
<defs>
<clipPath id="clip0_288_140">
<rect width="16" height="18" fill="white"/>
</clipPath>
</defs>
</svg>
